<?xml version="1.0" encoding="utf-8"?>
<!-- Generator: Adobe Illustrator 17.0.0, SVG Export Plug-In . SVG Version: 6.00 Build 0)  -->
<!DOCTYPE svg PUBLIC "-//W3C//DTD SVG 1.1//EN" "http://www.w3.org/Graphics/SVG/1.1/DTD/svg11.dtd">
<svg version="1.1" id="Camada_1" xmlns="http://www.w3.org/2000/svg" xmlns:xlink="http://www.w3.org/1999/xlink" x="0px" y="0px"
	 width="750px" height="250px" viewBox="0 0 750 250" enable-background="new 0 0 750 250" xml:space="preserve">
<path fill="#49B85A" d="M618.765,16.255c59.163,15.272,96.375,59.838,100.429,120.905c0.774,11.665,1.162,23.77-13.542,24.734
	c-13.147,0.862-15.95-10.371-16.612-21.393c-0.938-15.612-5.891-30.083-13.065-43.79c-16.005-30.582-41.512-47.773-75.468-52.768
	c-3.166-0.466-6.361-0.731-9.538-1.128c-8.911-1.113-18.647-1.271-21.54-12.348c0,0-3.461-16.999,10.477-18.624
	S618.765,16.255,618.765,16.255z"/>
<path fill="#015CB9" d="M38.618,117.426c29.156,27.407,59.03,58.104,88.941,86.752c5.34,5.114,10.558,9.401,18.514,6.663
	c8.532-2.936,8.636-10.154,8.649-17.313c0.045-25.589,0.014-51.177,0.034-76.766c0.008-9.532-0.921-18.889-13.417-18.933
	c-12.51-0.044-13.524,9.335-13.539,18.853c-0.023,14.915-0.006,29.831-0.006,48.04c-20.612-20.553-38.932-37.345-55.422-55.775
	c0,0-16.278-19.385-31.806-9.448C31.191,105.5,38.618,117.426,38.618,117.426z"/>
<path fill="#015CB9" d="M433.465,156.5c0.02-12.79,0.4-25.6-0.09-38.37c-0.48-12.48-8.07-21.59-19.53-15.38
	c-10.19,5.53-16.21,3.71-24.71-0.89c-6.76-3.67-14.57-3.62-22.43-1.67c-21.9,5.44-38.15,24.51-40.26,48.09
	c-2.61,29.06,9.62,52.62,31.84,61.84c12,4.98,23.73,5.03,34.95-1.65c5.23-3.11,7.79-7.09,15.4-0.81c11.87,9.8,23.44,3.19,24.63-12.8
	C434.205,182.14,433.455,169.29,433.465,156.5z M380.185,183.47c-13.52-0.13-23.04-11.53-22.29-27.94
	c0.63-13.9,5.59-25.42,21.73-26.67c13.26-1.04,23.53,11.21,23.57,27.07C403.235,172.01,393.555,183.6,380.185,183.47z"/>
<path fill="#015DB9" d="M233.314,156.499c-0.057-42.711,36.75-69.142,75.566-54.236c9.797,3.762,17.571,9.604,13.704,21.387
	c-3.584,10.923-12.178,8.45-20.671,5.958c-12.193-3.578-24.506-4.81-32.523,7.974c-7.397,11.796-7.576,24.495-0.197,36.284
	c7.836,12.519,20.15,11.899,32.5,8.607c8.122-2.165,16.968-6.297,20.615,5.357c3.657,11.685-3.963,17.573-13.612,21.722
	C270.597,225.934,233.372,199.762,233.314,156.499z"/>
<path fill="#045EB9" d="M544.099,120.022c0,9.583,0.494,19.197-0.106,28.743c-1.141,18.15,1.141,33.377,23.409,36.836
	c8.689,1.35,10.792,8.377,9.034,16.165c-1.675,7.421-7.331,9.639-14.431,9.738c-22.763,0.317-43.714-18.74-44.803-43.798
	c-1.328-30.568-0.394-61.234-0.506-91.857c-0.032-8.742,2.956-15.355,12.551-16.003c11.113-0.75,14.318,7.13,14.623,16.099
	c0.498,14.677,0.135,29.383,0.135,44.077C544.036,120.021,544.067,120.021,544.099,120.022z"/>
<path fill="#49B85B" d="M191.038,122.857c0.001,9.576,0.464,19.18-0.099,28.723c-1.071,18.181,1.233,33.216,23.858,36.209
	c6.855,0.907,9.833,7.63,8.595,14.901c-1.252,7.351-5.756,10.514-13.259,11.068c-21.336,1.574-44.218-17.451-45.545-40.613
	c-1.713-29.904-1.857-59.918-1.899-89.885c-0.013-9.36,0.599-21.111,14.01-20.988c14.32,0.131,14.363,11.691,14.344,22.281
	C191.02,97.321,191.037,110.089,191.038,122.857z"/>
<path fill="#015CB9" d="M457.256,121.238c-0.01-14.073,0.157-28.148-0.067-42.218c-0.154-9.662,0.681-18.932,13.07-19.075
	c12.012-0.139,14.05,8.539,13.995,18.501c-0.142,25.586,0.328,51.181-0.185,76.758c-0.307,15.298,3.902,26.306,20.612,29.32
	c8.527,1.538,14.557,6.215,12.507,15.741c-2.168,10.075-9.283,12.056-19.05,10.669c-22.945-3.259-39.69-20.228-40.742-43.646
	C456.707,151.968,457.265,136.591,457.256,121.238z"/>
<path fill="#49B85B" d="M587.631,71.175c39.644,0.892,71.961,34.418,72.497,72.806c0.134,9.569-3.664,16.801-13.356,17.921
	c-9.536,1.102-15.774-4.141-16.687-14.245c-2.499-27.667-18.188-42.293-45.081-46.313c-9.916-1.482-17.417-6.577-15.574-17.784
	C571.254,72.463,579.945,70.239,587.631,71.175z"/>
<path fill="#4FBA60" d="M586.383,162.736c-9.857-2.015-17.566-5.879-17.422-17.086c0.137-10.643,6.084-16.554,16.559-16.848
	c10.761-0.302,16.718,6.297,17.12,16.358C603.066,155.808,595.458,160.537,586.383,162.736z"/>
<path fill="#176ABF" d="M196.774,114.599c0.456-8.527-1.425-16.779,9.936-15.966c8.965,0.642,16.554,2.756,16.477,14.017
	c-0.069,10.193-6.357,12.253-15.095,12.806C198.158,126.083,195.809,121.304,196.774,114.599z"/>
</svg>
