<?xml version="1.0" encoding="utf-8"?>
<!-- Generator: Adobe Illustrator 25.1.0, SVG Export Plug-In . SVG Version: 6.00 Build 0)  -->
<svg version="1.1" id="Camada_1" xmlns="http://www.w3.org/2000/svg" xmlns:xlink="http://www.w3.org/1999/xlink" x="0px" y="0px"
	 viewBox="0 0 750 250" style="enable-background:new 0 0 750 250;" xml:space="preserve">
<style type="text/css">
	.st0{display:none;}
	.st1{fill:#36C147;}
	.st2{fill:#FFFFFF;}
</style>
<rect x="-314.1" y="-317.9" class="st0" width="1874.3" height="912.8"/>
<path class="st1" d="M618.8,16.3c59.2,15.3,96.4,59.8,100.4,120.9c0.8,11.7,1.2,23.8-13.5,24.7c-13.1,0.9-16-10.4-16.6-21.4
	c-0.9-15.6-5.9-30.1-13.1-43.8c-16-30.6-41.5-47.8-75.5-52.8c-3.2-0.5-6.4-0.7-9.5-1.1c-8.9-1.1-18.6-1.3-21.5-12.3
	c0,0-3.5-17,10.5-18.6S618.8,16.3,618.8,16.3z"/>
<path class="st2" d="M38.6,117.4c29.2,27.4,59,58.1,88.9,86.8c5.3,5.1,10.6,9.4,18.5,6.7c8.5-2.9,8.6-10.2,8.6-17.3
	c0-25.6,0-51.2,0-76.8c0-9.5-0.9-18.9-13.4-18.9c-12.5,0-13.5,9.3-13.5,18.9c0,14.9,0,29.8,0,48c-20.6-20.6-38.9-37.3-55.4-55.8
	c0,0-16.3-19.4-31.8-9.4C31.2,105.5,38.6,117.4,38.6,117.4z"/>
<path class="st2" d="M233.3,156.5c-0.1-42.7,36.8-69.1,75.6-54.2c9.8,3.8,17.6,9.6,13.7,21.4c-3.6,10.9-12.2,8.4-20.7,6
	c-12.2-3.6-24.5-4.8-32.5,8c-7.4,11.8-7.6,24.5-0.2,36.3c7.8,12.5,20.1,11.9,32.5,8.6c8.1-2.2,17-6.3,20.6,5.4
	c3.7,11.7-4,17.6-13.6,21.7C270.6,225.9,233.4,199.8,233.3,156.5z"/>
<path class="st2" d="M544.1,120c0,9.6,0.5,19.2-0.1,28.7c-1.1,18.1,1.1,33.4,23.4,36.8c8.7,1.4,10.8,8.4,9,16.2
	c-1.7,7.4-7.3,9.6-14.4,9.7c-22.8,0.3-43.7-18.7-44.8-43.8c-1.3-30.6-0.4-61.2-0.5-91.9c0-8.7,3-15.4,12.6-16
	c11.1-0.8,14.3,7.1,14.6,16.1C544.4,90.6,544,105.3,544.1,120C544,120,544.1,120,544.1,120z"/>
<path class="st1" d="M191,122.9c0,9.6,0.5,19.2-0.1,28.7c-1.1,18.2,1.2,33.2,23.9,36.2c6.9,0.9,9.8,7.6,8.6,14.9
	c-1.3,7.4-5.8,10.5-13.3,11.1c-21.3,1.6-44.2-17.5-45.5-40.6c-1.7-29.9-1.9-59.9-1.9-89.9c0-9.4,0.6-21.1,14-21
	C191,62.4,191.1,74,191,84.6C191,97.3,191,110.1,191,122.9z"/>
<path class="st2" d="M457.3,121.2c0-14.1,0.2-28.1-0.1-42.2c-0.2-9.7,0.7-18.9,13.1-19.1c12-0.1,14,8.5,14,18.5
	c-0.1,25.6,0.3,51.2-0.2,76.8c-0.3,15.3,3.9,26.3,20.6,29.3c8.5,1.5,14.6,6.2,12.5,15.7c-2.2,10.1-9.3,12.1-19,10.7
	c-22.9-3.3-39.7-20.2-40.7-43.6C456.7,152,457.3,136.6,457.3,121.2z"/>
<path class="st1" d="M587.6,71.2c39.6,0.9,72,34.4,72.5,72.8c0.1,9.6-3.7,16.8-13.4,17.9c-9.5,1.1-15.8-4.1-16.7-14.2
	c-2.5-27.7-18.2-42.3-45.1-46.3c-9.9-1.5-17.4-6.6-15.6-17.8C571.3,72.5,579.9,70.2,587.6,71.2z"/>
<path class="st1" d="M586.4,162.7c-9.9-2-17.6-5.9-17.4-17.1c0.1-10.6,6.1-16.6,16.6-16.8c10.8-0.3,16.7,6.3,17.1,16.4
	C603.1,155.8,595.5,160.5,586.4,162.7z"/>
<path class="st1" d="M196.8,114.6c0.5-8.5-1.4-16.8,9.9-16c9,0.6,16.6,2.8,16.5,14c-0.1,10.2-6.4,12.3-15.1,12.8
	C198.2,126.1,195.8,121.3,196.8,114.6z"/>
<path class="st2" d="M433.1,115.3c0-2.1-0.9-4.2-1.7-6.1c-3.7-9.6-13.6-12.4-21.7-6c-2.7,2.2-4.9,5.1-7.3,7.6
	c-16.2-15.1-34.6-16.4-52.8-4.1c-31.5,21.4-32.6,74.4-2.1,97.3c14.2,10.6,41.3,13,55.1-5.1c4.6,8.5,9.9,14.8,19.7,12.2
	c7.7-2,10.5-8.9,10.6-15.8C433.5,168.8,433.2,142,433.1,115.3z M396.7,176.2c-9.4,11.5-26.5,10.7-34.6-1.7
	c-6.7-10.2-7.2-21.4-2.9-32.5c4.3-11.2,14-16.3,25.6-14.1c11.2,2.1,18.5,13,18.5,27.6C403.7,163.2,401.5,170.2,396.7,176.2z"/>
<g>
	<path class="st2" d="M621.2,192.4c0,5.9-4.6,10.6-10.7,10.6c-6,0-10.8-4.6-10.8-10.6c0-5.8,4.8-10.4,10.8-10.4
		C616.5,182,621.2,186.6,621.2,192.4z M602.4,192.4c0,4.6,3.4,8.3,8.2,8.3c4.6,0,8-3.7,8-8.3c0-4.6-3.4-8.4-8-8.4
		C605.8,184.1,602.4,187.8,602.4,192.4z M608.8,197.9h-2.4v-10.4c1-0.2,2.3-0.3,4-0.3c2,0,2.9,0.3,3.6,0.8c0.6,0.4,1,1.3,1,2.3
		c0,1.1-0.9,2-2.2,2.4v0.1c1,0.4,1.6,1.1,1.9,2.5c0.3,1.6,0.5,2.2,0.8,2.6h-2.6c-0.3-0.4-0.5-1.3-0.8-2.5c-0.2-1.1-0.8-1.7-2.2-1.7
		h-1.1V197.9z M608.9,192h1.1c1.3,0,2.4-0.4,2.4-1.5c0-1-0.7-1.6-2.2-1.6c-0.6,0-1.1,0.1-1.3,0.1V192z"/>
</g>
</svg>
