<?xml version="1.0" encoding="utf-8"?>
<!-- Generator: Adobe Illustrator 17.0.0, SVG Export Plug-In . SVG Version: 6.00 Build 0)  -->
<!DOCTYPE svg PUBLIC "-//W3C//DTD SVG 1.1//EN" "http://www.w3.org/Graphics/SVG/1.1/DTD/svg11.dtd">
<svg version="1.1" id="Camada_1" xmlns="http://www.w3.org/2000/svg" xmlns:xlink="http://www.w3.org/1999/xlink" x="0px" y="0px"
	 width="1000px" height="1000px" viewBox="0 0 1000 1000" enable-background="new 0 0 1000 1000" xml:space="preserve">
<g id="Camada_1_1_">
	<path fill="#348437" d="M387.788,139.847c296.877,76.634,483.604,300.264,503.947,606.694
		c3.884,58.534,5.831,119.276-67.953,124.114c-65.971,4.325-80.036-52.041-83.358-107.349
		c-4.707-78.34-29.561-150.955-65.559-219.736C594.552,390.111,466.56,303.848,296.17,278.783
		c-15.887-2.338-31.919-3.668-47.861-5.66c-44.715-5.585-93.569-6.378-108.086-61.962c0,0-17.367-85.3,52.573-93.454
		S387.788,139.847,387.788,139.847z"/>
	<path fill="#348437" d="M231.559,415.432c198.931,4.476,361.096,172.708,363.786,365.336c0.672,48.017-18.386,84.306-67.02,89.927
		c-47.851,5.53-79.153-20.779-83.734-71.481c-12.54-138.831-91.266-212.224-226.214-232.396
		c-49.758-7.437-87.397-33.003-78.149-89.239C149.38,421.89,192.986,410.73,231.559,415.432z"/>
	<circle fill="#348437" cx="222.414" cy="789.71" r="85.164"/>
	<path fill="#36C147" d="M401.065,128.704c296.877,76.634,483.604,300.264,503.947,606.694
		c3.884,58.534,5.831,119.276-67.953,124.114c-65.971,4.326-80.036-52.041-83.358-107.349
		c-4.707-78.34-29.561-150.955-65.559-219.736C607.83,378.969,479.837,292.705,309.448,267.641
		c-15.887-2.338-31.919-3.668-47.861-5.66c-44.715-5.585-93.569-6.378-108.086-61.962c0,0-17.367-85.3,52.573-93.454
		S401.065,128.704,401.065,128.704z"/>
	<path fill="#36C147" d="M244.836,404.289c198.931,4.476,361.096,172.707,363.786,365.336c0.672,48.017-18.386,84.306-67.02,89.927
		c-47.851,5.53-79.153-20.779-83.734-71.481c-12.54-138.831-91.266-212.224-226.214-232.396
		c-49.758-7.437-87.397-33.003-78.149-89.239C162.658,410.748,206.264,399.588,244.836,404.289z"/>
	<circle fill="#36C147" cx="235.691" cy="778.568" r="85.164"/>
</g>
<g id="Camada_3">
	<path fill="#FABFA1" d="M363.337,877.146c0,0,10.44,27.839,8.313,30.159s-43.788,3.77-42.532-0.773s7.25-28.226,10.343-33.735
		C339.461,872.796,343.908,880.916,363.337,877.146z"/>
	<path fill="#593C3C" d="M308.014,757.059c0,0,17.27-53.1,24.488-80.681l46.14,17.27c0,0-30.674,80.939-30.932,79.65
		s55.549,60.398,61.155,62.138c0,0,2.417,4.108,0.87,9.908c0,0-2.288,9.473-12.18,13.629c-9.892,4.157-84.645-55.388-93.538-68.663
		c0,0-4.769,1.547,3.995-32.221"/>
	<path fill="#724C4C" d="M363.337,877.146c0,0-17.013,3.867-23.876-4.35c0,0-4.833-4.446-4.253-14.693
		c0,0,11.986-73.657,19.333-81.197c0,0,15.273-55.485,13.339-69.791l-35.379-30.739c0,0,45.432,16.819,83.517,5.413
		c0,0,1.083,17.79,0,23.586c-4.302,23.028-33.832,87.383-33.832,87.383L370.78,862.55
		C370.78,862.55,368.654,875.696,363.337,877.146z"/>
	<path fill="#FBC197" d="M397.556,858.974c0,0,9.473-4.156,12.18-13.629c0,0,10.44,0.677,22.039,8.41
		c11.6,7.733-3.577,23.006-4.64,25.326l-13.919,23.779h-30.352c0,0-2.417-5.896,3.673-5.606c6.09,0.29,15.176,0.193,16.723-13.243
		S397.556,858.974,397.556,858.974z"/>
	<path fill="#C48BD6" d="M332.502,676.377c0,0,46.785,18.366,83.517,5.413v-41.372l23.199-66.117l-6.381-54.052
		c-7.945-4.343-46.572-19.288-104.782-3.366L332.502,676.377z"/>
	<path fill="#853F9E" d="M406.739,557.288c0,0-0.58,18.849,32.479,17.013c0,0,17.786-28.322,10.536-43.692
		C435.742,500.904,406.256,539.696,406.739,557.288z"/>
	<path fill="#E3A680" d="M408.945,564.286c0,0,4.882,11.433,30.272,10.015l-28.354,42.145c0,0-11.986,20.364-31.963-13.533
		l-25.261-43.305l-7.604-13.791l4.124-12.76h3.738c0,0,11.342,16.239,13.275,19.719c1.933,3.48,23.844,36.474,27.581,36.088
		S403.934,580.176,408.945,564.286z"/>
	<path fill="#853F9E" d="M328.055,516.883c0,0-19.784,14.113-16.819,32.543c2.965,18.43,18.021,10.565,18.025,10.701
		C329.265,560.264,328.055,516.883,328.055,516.883z"/>
	<path fill="#E3A977" d="M311.236,549.427c0,0-26.679,35.121-20.106,58.513c0,0,13.919-35.1,31.899-46.259
		C323.029,561.681,312.589,562.057,311.236,549.427z"/>
	<rect x="328.055" y="516.883" fill="#FFFDFF" width="23.392" height="44.798"/>
	<path fill="#F6C1A3" d="M291.13,607.94c0,0,6.934,17.206,19.803,8.12s23.695-51.522,43.221-68.969c0,0,1.353-4.537-11.793,3.432
		c-13.146,7.968,3.673-17.464,3.673-17.464s-0.773-11.728-15.659,9.537c0,0,0.775-16.052-2.029-15.275
		c-2.804,0.776-5.317,34.361-5.317,34.361S302.439,576.621,291.13,607.94z"/>
	<path fill="#DBAC82" d="M367.977,516.883c0,0-0.483,20.686,14.499,19.236c0,0,11.432-17.204,21.882-23.633l0.576-24.666
		c0,0-10.375,24.23-26.421,29.063H367.977z"/>
	<path fill="#F9C19F" d="M367.977,516.883h-8.313c0,0-10.536-4.833-15.273-51.135v-18.173l9.376-7.153l7.636-1.45l19.333,1.063
		l8.313,2.127l5.8,2.223l4.93,2.9l6.476,2.997l2.513,1.643l2.127,4.06l0.612,3.802c0,0,0.082,7.201-6.573,21.073v6.96
		c0,0-11.632,25.39-26.421,29.063H367.977z"/>
	<path fill="#31211C" d="M333.758,451.926c0,0,6.766,15.273,10.633,13.823s-1.837-8.216,2.707-7.54
		c4.544,0.676,2.03,5.993,6.766,4.543c4.736-1.45,2.61-4.64,7.443-4.736c4.833-0.097,27.496-7.564,33.155,13.146
		c4.253,15.563,5.993-11.213,7.83-15.079c1.837-3.867,4.06-1.74,6.186,0c2.126,1.74,2.354,3.033,2.724,6.591
		c0.37,3.558,5.106-50.67-47.189-41.873C364.014,420.8,335.595,425.537,333.758,451.926z"/>
	<path fill="#51413D" d="M381.509,472.556c-3.753-2.561-8.67-1.117-13.119-1.284c0.068-0.697,0.136-1.396,0.204-2.094
		c5.369,0.831,14.064-3.105,15.331,3.602C383.11,472.738,382.305,472.663,381.509,472.556z"/>
	<path fill="#B5835F" d="M368.749,477.976c5.126-4.649,8.671-4.461,13.187-1.01C377.895,480.718,374.052,479.46,368.749,477.976z"/>
	<path fill="#E3A984" d="M360.744,494.844c0.425-3.395-0.616-7.178,2.604-9.832c0.273,5.419-0.818,10.993,2.756,16.25
		C360.008,501.648,361.449,497.491,360.744,494.844z"/>
	<path fill="#E8B48E" d="M376.591,503.347c-2.074,4.337-4.914,3.475-9.181,3.82C370.806,503.948,373.198,503.329,376.591,503.347z"
		/>
	<path fill="#51413D" d="M347.254,473.164c3.499-2.538,8.082-1.107,12.229-1.272c-0.064-0.691-0.127-1.383-0.19-2.075
		c-5.004,0.824-13.11-3.077-14.291,3.57C345.761,473.344,346.512,473.27,347.254,473.164z"/>
	<path fill="#B5835F" d="M360.177,479.343c-5.126-4.649-8.671-4.461-13.187-1.01C351.031,482.086,354.875,480.827,360.177,479.343z"
		/>
</g>
</svg>
