<?xml version="1.0" encoding="utf-8"?>
<!-- Generator: Adobe Illustrator 17.0.0, SVG Export Plug-In . SVG Version: 6.00 Build 0)  -->
<!DOCTYPE svg PUBLIC "-//W3C//DTD SVG 1.1//EN" "http://www.w3.org/Graphics/SVG/1.1/DTD/svg11.dtd">
<svg version="1.1" id="Camada_1" xmlns="http://www.w3.org/2000/svg" xmlns:xlink="http://www.w3.org/1999/xlink" x="0px" y="0px"
	 width="1000px" height="1000px" viewBox="0 0 1000 1000" enable-background="new 0 0 1000 1000" xml:space="preserve">
<g id="PESSOA">
	<polygon fill="#6275FF" points="854.056,678.315 824.003,675.681 824.003,706.098 854.056,709.211 	"/>
	<path fill="#252FB3" d="M634.547,759.849c0,0,5.483,34.114,15.23,33.505l77.536-67.596c0,0-23.646-24.591-68.906,15.496
		C637.137,760.093,634.547,759.849,634.547,759.849z"/>
	<path fill="#6275FF" d="M627.643,729.187c0,0,10.187,32.287,10.898,32.287s25.586-2.437,27.481-26.499l-13.504-24.976
		L627.643,729.187z"/>
	<path fill="#1F37B0" d="M849.132,676.087c0,0,6.903-52.459,39.427-49.581l-10.042,107.519c0,0-35.02,1.457-38.371-22.758
		C840.146,711.267,851.721,705.632,849.132,676.087z"/>
	<path fill="#49B85B" d="M428.949,596.284c0,0-24.367-45.079,9.138-74.929c33.505-29.85,126.068-24.727,141.33-21.321
		c35.49,7.919,99.297,120.009,82.24,219.914c0,0-39.292,29.854-50.562,18.885c-23.746-23.113-30.459-85.285-29.85-129.146
		C581.853,565.825,428.949,596.284,428.949,596.284z"/>
	<path fill="#49B85B" d="M820.652,719.948c22.743-21.931,13.808-63.152,13.808-63.152s-112.495-37.972-186.816-72.086
		c0,0-26.804-20.712-84.676-12.793c0,0-59.091-10.356-134.02,24.367c0,0,24.976,43.658,0,92.799c0,0,62.746,17.463,147.422-55.029
		c0,0,21.931-4.569,79.194,37.922c0,0,38.988,27.464,108.434,31.322L820.652,719.948z"/>
	<path fill="#FFB279" d="M424.837,390.076l-20.56-12.793c0,0,34.556-60.309,56.168-35.447
		C460.445,341.836,474.507,350.486,424.837,390.076z"/>
	<path fill="#193393" d="M267.413,458.001c-3.582,4.666-9.384,11.011-17.472,16.145c-15.443,9.801-39.219,15.186-71.785-3.962
		c0,0-34.304,188.846,237.391,241.642c0,0,44.267-53.202,13.402-115.541c0,0-24.773-40.815,9.138-74.929
		c0,0-18.072-18.682-60.309-4.873c0,0-72.289,0-76.351-33.708c0,0,35.739,15.026,64.979-10.153c0,0,45.079-38.581,62.543-80.818
		c0,0-2.437-21.118-27.616-18.275c0,0-33.708,52.796-73.508,77.569C327.825,451.096,271.777,447.442,267.413,458.001"/>
	<path fill="none" stroke="#C91111" stroke-miterlimit="10" d="M214.365,405.458"/>
	<path fill="#FFB279" d="M178.155,470.184c0,0,2.552-4.524-8.718-31.202l19.189-69.313c0,0,12.488-16.143,25.738-17.057
		s64.421,80.412,10.204,101.429c0,0-4.644,2.465,22.807,21.64C247.375,475.681,217.028,495.769,178.155,470.184z"/>
	<path fill="#140B8D" d="M207.356,417.392c0,0-6.092,37.322-47.821,21.483c0,0-28.089-5.787-31.439-42.034
		c-3.351-36.246,16.589-61.832,49.904-60.614c0,0,36.361,4.873,29.356-21.931c0,0,33.912,21.114,9.747,37.16
		c0,0-35.942,12.488-23.758,32.591C193.345,384.049,211.285,396.83,207.356,417.392z"/>
	<path fill="#E88213" d="M201.724,424.901c0,0-30.459-0.812-22.743-25.789c7.716-24.976,34.419-1.015,30.205,7.31
		c0,0,17.108,9.95,42.693,12.59c0,0,31.576-21.22,34.114,5.889c1.919,20.491-33.253,19.291-34.52,8.935
		C251.474,433.836,235.229,436.069,201.724,424.901z"/>
	<path fill="#EF9F6A" d="M209.187,406.423c0,0,20.56,7.031,15.306,16.854s-6.511,9.214-22.768,1.624c0,0-7.919,12.387,19.189,16.956
		l29.027,32.289l17.472-16.145l-19.543-23.759c5.178-12.336,0.152-20.56,0.152-20.56
		C233.402,396.32,209.187,406.423,209.187,406.423"/>
	<path fill="#152F77" d="M249.941,567.653c20.622,68.598,73.417,56.045,73.417,56.045c79.6-35.739-55.944-165.697-55.944-165.697
		c-14.114-1.218-17.472,16.145-17.472,16.145c25.271,25.08,38.49,95.967,38.49,95.967S244.333,549,249.941,567.653z"/>
</g>
<g id="TELEFONE">
	<polygon fill="#5F71FF" points="685.414,381.243 574.543,391.599 567.842,359.313 605.307,256.97 711.913,242.35 	"/>
	<polygon fill="#1F3EBA" points="685.414,381.243 678.408,342.865 711.913,242.35 762.171,233.212 785.929,350.784 	"/>
	<path fill="#E9AB2D" d="M601.436,305.314c0,19.345,15.73,31.068,35.133,31.068c19.404,0,35.133-15.682,35.133-35.027
		s-15.73-35.027-35.133-35.027C617.166,266.328,601.436,285.969,601.436,305.314z"/>
	<circle fill="#282828" cx="658.372" cy="304.857" r="4.721"/>
	<circle fill="#282828" cx="656.531" cy="286.781" r="4.721"/>
	<circle fill="#282828" cx="639.378" cy="278.848" r="4.721"/>
	<circle fill="#282828" cx="621.191" cy="283.9" r="4.721"/>
	<circle fill="#282828" cx="612.967" cy="301.745" r="4.721"/>
	<circle fill="#282828" cx="617.844" cy="320.018" r="4.721"/>
	<circle fill="#282828" cx="631.852" cy="327.023" r="4.721"/>
	<circle fill="#282828" cx="648.791" cy="321.696" r="4.721"/>
	<circle fill="#0632A5" cx="635.569" cy="301.745" r="9.341"/>
	<path fill="#E8C458" d="M724.552,240.052c0,0-8.374-25.572,5.485-28.161c13.859-2.589,15.824,24.287,15.824,24.287L724.552,240.052
		z"/>
	<path fill="#E8C458" d="M626.583,254.052c0,0-5.438-19.47,3.852-20.84c9.29-1.371,8.352,19.166,8.352,19.166L626.583,254.052z"/>
	<circle fill="#848484" cx="767.654" cy="342.052" r="4.67"/>
	<path fill="none" stroke="#848484" stroke-width="2" stroke-miterlimit="10" d="M443.02,517.486
		c-6.276-11.249-13.78-21.714-22.628-31.057c0,0-62.989-66.928-135.346-54.684"/>
	<path fill="none" stroke="#848484" stroke-width="2" stroke-miterlimit="10" d="M531.686,497.494
		c-4.298-3.606-8.747-5.534-13.304-5.38c-48.009,1.624-193.631,250.41-121.111,274.132c28.835,9.432,54.088-25.86,65.586-76.283"/>
	<path fill="none" stroke="#848484" stroke-width="2" stroke-miterlimit="10" d="M559.006,497.825
		c-6.885-6.952-14.246-9.95-22.029-7.335c-50.765,17.057,15.839,206.309,40.612,217.884c10.124,4.73,10.103-30.797,3.261-74.357"/>
	<path fill="none" stroke="#848484" stroke-width="2" stroke-miterlimit="10" d="M707.879,610.08
		c-1.363-2.595-2.826-5.101-4.392-7.501c-8.363-12.809-18.002-12.649-27.683-5.411"/>
	<path fill="none" stroke="#848484" stroke-width="2" stroke-miterlimit="10" d="M767.654,342.052c0,0,9.95,8.935-4.67,46.095
		s13.605,30.865,19.697,51.171c6.092,20.306,0.609,49.953-22.54,69.041s-120.98,125.979-54.217,213.62
		c8.068,10.591,14.836-2.235,17.014-24.057"/>
	<path fill="#5972FF" d="M829.181,400.128c-19.494,12.184-19.534,42.947,22.54,57.872c67.176,23.829,81.224-37.769,80.412-49.953
		c-1.347-20.205,37.104-37.451,46.907-61.324c7.462-18.174-8.376-53.48-32.439-55.029c-37.608-2.421-59.411,22.108-65.335,60.614
		C879.438,364.186,845.764,389.763,829.181,400.128z"/>
	<path fill="#1A38B0" d="M924.375,490.184c-8.469,7.902-5.528,23.121,16.718,26.453c35.518,5.32,36.537-26.498,34.963-32.446
		c-2.611-9.864,14.747-22.094,17.297-34.845c1.942-9.707-9.29-25.645-21.341-24.095c-18.834,2.422-27.256,16.653-26.48,36.267
		C945.773,467.57,931.58,483.461,924.375,490.184z"/>
	<path fill="#49B85B" d="M455.907,805.603c-9.3,11.285-3.113,29.852,25.281,30.36c45.334,0.812,41.372-39.183,38.422-46.369
		c-4.892-11.917,14.822-30.083,15.915-46.464c0.832-12.47-15.85-30.57-30.679-26.647c-23.176,6.132-31.376,25.331-27.175,49.756
		C478.968,773.775,463.818,796.003,455.907,805.603z"/>
	<path fill="#FFA116" d="M543.108,829.029c-3.513,6.477,1.334,15.064,15.426,12.582c22.5-3.962,16.691-23.362,14.54-26.632
		c-3.567-5.423,4.435-16.305,3.399-24.512c-0.789-6.248-10.782-13.594-17.738-10.226c-10.872,5.264-13.08,15.548-8.651,27.224
		C551.45,811.068,546.097,823.52,543.108,829.029z"/>
	<path fill="#FFC14C" d="M74.276,379.995c3.907,8.502,16.325,10.115,24.534-6.097c13.106-25.884-11.034-34.752-15.995-35.056
		c-8.227-0.505-13.194-16.923-22.324-22.12c-6.95-3.956-22.026,0.607-23.9,10.241c-2.929,15.058,5.843,25.133,21.081,29.522
		C62.374,357.839,70.952,372.762,74.276,379.995z"/>
	<path fill="#49B85B" d="M92.95,316.437c-0.684,4.665,4.119,8.756,12.039,4.162c12.645-7.335,4.883-17.711,2.871-19.202
		c-3.337-2.473-0.926-10.773-3.356-15.475c-1.85-3.58-9.471-5.793-12.909-2.238c-5.373,5.557-4.434,12.222,0.798,18.261
		C94.007,303.809,93.532,312.469,92.95,316.437z"/>
</g>
</svg>
