<?xml version="1.0" encoding="utf-8"?>
<!-- Generator: Adobe Illustrator 17.0.0, SVG Export Plug-In . SVG Version: 6.00 Build 0)  -->
<!DOCTYPE svg PUBLIC "-//W3C//DTD SVG 1.1//EN" "http://www.w3.org/Graphics/SVG/1.1/DTD/svg11.dtd">
<svg version="1.1" id="Camada_1" xmlns="http://www.w3.org/2000/svg" xmlns:xlink="http://www.w3.org/1999/xlink" x="0px" y="0px"
	 width="500px" height="300px" viewBox="0 0 500 300" enable-background="new 0 0 500 300" xml:space="preserve">
<path fill="#49B85A" d="M356.091,14.386c83.937,21.667,136.731,84.894,142.482,171.532c1.098,16.55,1.649,33.723-19.212,35.091
	c-18.652,1.223-22.629-14.714-23.568-30.351c-1.331-22.149-8.358-42.68-18.536-62.126c-22.707-43.388-58.895-67.777-107.069-74.864
	c-4.492-0.661-9.025-1.037-13.532-1.6c-12.642-1.579-26.455-1.803-30.56-17.519c0,0-4.91-24.117,14.864-26.423
	S356.091,14.386,356.091,14.386z"/>
<path fill="#015CB9" d="M8.292,158.485c41.365,38.883,83.748,82.434,126.184,123.078c7.576,7.255,14.979,13.338,26.266,9.453
	c12.105-4.165,12.252-14.406,12.271-24.563c0.064-36.304,0.02-72.607,0.048-108.911c0.011-13.523-1.307-26.799-19.035-26.861
	c-17.748-0.062-19.187,13.244-19.208,26.747c-0.033,21.16-0.009,42.322-0.009,68.156c-29.243-29.159-55.234-52.983-78.629-79.13
	c0,0-23.094-27.502-45.124-13.404C-2.245,141.565,8.292,158.485,8.292,158.485z"/>
<path fill="#49B85B" d="M224.536,166.19c0.001,13.586,0.658,27.211-0.14,40.75c-1.519,25.794,1.749,47.125,33.848,51.371
	c9.725,1.287,13.95,10.825,12.194,21.141c-1.776,10.429-8.166,14.917-18.811,15.703c-30.27,2.233-62.734-24.758-64.616-57.619
	c-2.43-42.426-2.635-85.008-2.694-127.523c-0.018-13.279,0.85-29.951,19.876-29.776c20.316,0.186,20.377,16.586,20.35,31.611
	C224.51,129.961,224.535,148.076,224.536,166.19z"/>
<path fill="#49B85B" d="M311.92,92.303c56.244,1.266,102.094,48.83,102.854,103.293c0.19,13.576-5.198,23.836-18.949,25.425
	c-13.529,1.563-22.379-5.875-23.674-20.21c-3.545-39.252-25.804-60.003-63.958-65.706c-14.068-2.103-24.71-9.331-22.095-25.231
	C288.686,94.13,301.016,90.975,311.92,92.303z"/>
<path fill="#4FBA60" d="M310.15,222.204c-13.984-2.859-24.921-8.341-24.717-24.241c0.194-15.1,8.632-23.486,23.493-23.903
	c15.267-0.428,23.718,8.934,24.289,23.208C333.818,212.375,323.025,219.084,310.15,222.204z"/>
<path fill="#176ABF" d="M232.674,154.474c0.647-12.098-2.022-23.805,14.097-22.652c12.719,0.911,23.486,3.91,23.377,19.886
	c-0.098,14.461-9.019,17.384-21.416,18.168C234.637,170.767,231.305,163.987,232.674,154.474z"/>
</svg>
